<svg xmlns="http://www.w3.org/2000/svg" xmlns:xlink="http://www.w3.org/1999/xlink" width="4000" zoomAndPan="magnify" viewBox="0 0 3000 225" height="300" preserveAspectRatio="xMidYMid meet" version="1.2"><g id="a6e7aefa15"><path style=" stroke:none;fill-rule:nonzero;fill:#00577d;fill-opacity:1;" d="M 730.476562 29.710938 L 2965.828125 29.710938 L 2965.828125 194.84375 L 730.476562 194.84375 Z M 730.476562 29.710938 "/><path style=" stroke:none;fill-rule:nonzero;fill:#17a1b1;fill-opacity:1;" d="M 38.589844 143.074219 C 51.460938 153.570312 58.945312 157.328125 67.101562 157.328125 C 74.425781 157.328125 79.582031 152.585938 79.582031 146.058594 C 79.582031 126.253906 37.363281 111.421875 37.363281 78.527344 C 37.363281 59.125 54.203125 44.058594 76.214844 44.058594 C 85.867188 44.058594 95.214844 46.617188 105.710938 52.394531 L 105.710938 77.734375 C 92.269531 70.203125 86.28125 68.03125 79.582031 68.03125 C 72.226562 68.03125 67.101562 71.777344 67.101562 77.320312 C 67.101562 93.402344 110.867188 112.988281 110.867188 145.054688 C 110.867188 166.660156 94.050781 182.898438 71.644531 182.898438 C 61.144531 182.898438 51.226562 179.714844 38.589844 172.203125 "/><path style=" stroke:none;fill-rule:nonzero;fill:#17a1b1;fill-opacity:1;" d="M 204.605469 45.867188 L 237.316406 45.867188 L 203.441406 119.304688 L 203.441406 181.101562 L 171.933594 181.101562 L 171.933594 119.304688 L 134.519531 45.867188 L 167.390625 45.867188 "/><path style=" stroke:none;fill-rule:nonzero;fill:#17a1b1;fill-opacity:1;" d="M 267.683594 45.867188 L 298.382812 45.867188 L 298.382812 156.734375 L 347.945312 156.734375 L 347.945312 181.101562 L 267.683594 181.101562 "/><path style=" stroke:none;fill-rule:nonzero;fill:#17a1b1;fill-opacity:1;" d="M 353.800781 45.867188 L 384.90625 45.867188 L 405.691406 115.546875 L 406.09375 115.546875 L 425.703125 45.867188 L 456.820312 45.867188 L 413.449219 182.898438 L 399.160156 182.898438 "/><path style=" stroke:none;fill-rule:nonzero;fill:#17a1b1;fill-opacity:1;" d="M 487.597656 45.867188 L 518.289062 45.867188 L 518.289062 181.101562 L 487.597656 181.101562 Z M 487.597656 45.867188 "/><path style=" stroke:none;fill-rule:nonzero;fill:#17a1b1;fill-opacity:1;" d="M 583.417969 45.074219 L 615.296875 45.074219 L 650.773438 181.101562 L 621.042969 181.101562 L 614.734375 152.96875 L 584.234375 152.96875 L 577.660156 181.101562 L 547.933594 181.101562 "/><path style=" stroke:none;fill-rule:nonzero;fill:#ffffff;fill-opacity:1;" d="M 760.800781 45.867188 L 831.953125 45.867188 L 831.953125 69.207031 L 791.523438 69.207031 L 791.523438 101.117188 L 830.566406 101.117188 L 830.566406 124.476562 L 791.523438 124.476562 L 791.523438 181.101562 L 760.800781 181.101562 "/><path style=" stroke:none;fill-rule:nonzero;fill:#ffffff;fill-opacity:1;" d="M 865.4375 45.867188 L 944.296875 45.867188 L 944.296875 69.207031 L 896.109375 69.207031 L 896.109375 100.714844 L 940.910156 100.714844 L 940.910156 124.074219 L 896.109375 124.074219 L 896.109375 157.730469 L 946.050781 157.730469 L 946.050781 181.101562 L 865.4375 181.101562 "/><path style=" stroke:none;fill-rule:nonzero;fill:#ffffff;fill-opacity:1;" d="M 983.050781 45.867188 L 1013.765625 45.867188 L 1013.765625 181.101562 L 983.050781 181.101562 Z M 983.050781 45.867188 "/><path style=" stroke:none;fill-rule:nonzero;fill:#ffffff;fill-opacity:1;" d="M 1055.507812 45.867188 L 1086.199219 45.867188 L 1086.199219 156.734375 L 1135.730469 156.734375 L 1135.730469 181.101562 L 1055.507812 181.101562 "/></g></svg>