<?xml version="1.0" encoding="utf-8"?>
<!-- Generator: Adobe Illustrator 16.0.0, SVG Export Plug-In . SVG Version: 6.00 Build 0)  -->
<!DOCTYPE svg PUBLIC "-//W3C//DTD SVG 1.1//EN" "http://www.w3.org/Graphics/SVG/1.1/DTD/svg11.dtd">
<svg version="1.1" id="Ebene_1" xmlns="http://www.w3.org/2000/svg" xmlns:xlink="http://www.w3.org/1999/xlink" x="0px" y="0px"
	 width="283.46px" height="85.04px" viewBox="0 0 283.46 85.04" enable-background="new 0 0 283.46 85.04" xml:space="preserve">
<g>
	<path fill="#00577D" d="M3.52,46.002h1.627c2.944,0,3.92,2.33,3.92,5.701c0,4.76-2.088,5.736-3.715,5.736H3.52 M5.215,56.07
		c1.712,0,2.38-1.217,2.38-4.299c0-3.234-0.616-4.398-2.345-4.398H4.993v8.697H5.215z"/>
	<path fill="#00577D" d="M11.241,45.85c0.428,0,0.77,0.342,0.77,0.77s-0.342,0.77-0.77,0.77c-0.428,0-0.77-0.342-0.77-0.77
		S10.813,45.85,11.241,45.85 M10.573,49.855h1.336v7.584h-1.336V49.855z"/>
	<path fill="#00577D" d="M13.586,49.855h1.336v0.547h0.034c0.274-0.428,0.685-0.668,1.147-0.668c1.25,0,2.174,1.73,2.174,4.023
		c0,2.277-0.89,3.887-2.174,3.887c-0.445,0-0.805-0.205-1.147-0.668h-0.034v4.555h-1.336 M14.922,55.693
		c0.325,0.479,0.582,0.684,0.924,0.684c0.463,0,1.062-0.496,1.062-2.637c0-1.83-0.394-2.738-1.181-2.738
		c-0.377,0-0.651,0.291-0.805,0.668V55.693z"/>
	<rect x="19.561" y="46.002" fill="#00577D" width="1.336" height="11.438"/>
	<path fill="#00577D" d="M24.115,56.652c0,0.514-0.411,0.941-0.925,0.941c-0.513,0-0.941-0.428-0.941-0.941s0.428-0.926,0.941-0.926
		C23.704,55.727,24.115,56.139,24.115,56.652"/>
	<path fill="#00577D" d="M34.064,56.943c-0.6,0.461-1.113,0.65-1.747,0.65c-1.968,0-3.081-2.09-3.081-5.805
		c0-3.305,0.907-5.939,3.116-5.939c0.445,0,1.044,0.221,1.575,0.598v1.49c-0.445-0.445-0.993-0.719-1.472-0.719
		c-1.302,0-1.678,1.627-1.678,4.502c0,3.064,0.445,4.502,1.729,4.502c0.479,0,0.839-0.188,1.558-0.82"/>
	<path fill="#00577D" d="M35.262,46.002h1.335v4.605h0.034c0.412-0.701,0.805-0.957,1.404-0.957c0.736,0,1.66,0.547,1.66,2.139v5.65
		h-1.334v-5.496c0-0.736-0.189-1.096-0.702-1.096c-0.411,0-0.754,0.309-1.062,0.891v5.701h-1.335"/>
	<path fill="#00577D" d="M45.021,56.977c-0.497,0.463-0.993,0.668-1.558,0.668c-1.508,0-2.432-1.354-2.432-4.006
		c0-2.5,0.771-3.988,2.105-3.988c0.822,0,1.268,0.529,1.593,1.129c0.205,0.377,0.462,1.336,0.444,3.168h-2.807
		c0,1.592,0.462,2.465,1.352,2.465c0.497,0,0.925-0.258,1.302-0.754 M43.839,52.953c0-1.455-0.239-2.139-0.771-2.139
		c-0.496,0-0.719,0.701-0.719,2.139H43.839z"/>
	<path fill="#00577D" d="M52.861,57.439v-5.393c0-0.668-0.154-1.131-0.719-1.131c-0.445,0-0.686,0.258-1.062,0.891v5.633h-1.335
		v-5.377c0-0.752-0.188-1.146-0.735-1.146c-0.412,0-0.668,0.291-1.045,0.908v5.615h-1.336v-7.584h1.336v0.82h0.034
		c0.411-0.684,0.805-0.941,1.403-0.941c0.686,0,1.131,0.326,1.559,1.131c0.616-0.891,0.941-1.131,1.559-1.131
		c0.855,0,1.678,0.635,1.678,2.227v5.479"/>
	<path fill="#00577D" d="M56.422,45.85c0.428,0,0.77,0.342,0.77,0.77s-0.342,0.77-0.77,0.77s-0.771-0.342-0.771-0.77
		S55.994,45.85,56.422,45.85 M55.754,49.855h1.336v7.584h-1.336V49.855z"/>
	<path fill="#00577D" d="M58.75,46.002h1.336v11.438H58.75 M60.223,53.535l1.9-3.68h1.403l-2.021,3.594l2.277,3.99h-1.489
		L60.223,53.535z"/>
	<path fill="#00577D" d="M68.133,56.977c-0.496,0.463-0.992,0.668-1.558,0.668c-1.507,0-2.431-1.354-2.431-4.006
		c0-2.5,0.77-3.988,2.105-3.988c0.822,0,1.267,0.529,1.592,1.129c0.205,0.377,0.463,1.336,0.445,3.168h-2.808
		c0,1.592,0.462,2.465,1.353,2.465c0.496,0,0.924-0.258,1.301-0.754 M66.951,52.953c0-1.455-0.238-2.139-0.77-2.139
		c-0.496,0-0.719,0.701-0.719,2.139H66.951z"/>
	<path fill="#00577D" d="M69.793,49.855h1.336v2.055h0.034c0.53-1.816,0.771-2.176,1.403-2.176c0.258,0,0.463,0.068,0.686,0.223
		l-0.104,1.371c-0.205-0.139-0.376-0.189-0.582-0.189c-1.026,0-1.438,2.414-1.438,3.287v3.014h-1.336"/>
	<path fill="#00577D" d="M74.725,45.85c0.428,0,0.77,0.342,0.77,0.77s-0.342,0.77-0.77,0.77s-0.771-0.342-0.771-0.77
		S74.297,45.85,74.725,45.85 M74.057,49.855h1.336v7.584h-1.336V49.855z"/>
	<path fill="#00577D" d="M77.069,49.855h1.335v0.82h0.034c0.411-0.666,0.806-0.941,1.404-0.941c0.925,0,1.661,0.736,1.661,2.244
		v5.461h-1.336v-5.428c0-0.65-0.171-1.096-0.719-1.096c-0.411,0-0.736,0.309-1.045,0.908v5.615h-1.335"/>
	<rect x="91.844" y="46.002" fill="#17A1B1" width="1.336" height="16.059"/>
	<polyline fill="#00577D" points="103.707,46.002 107.269,46.002 107.269,47.373 105.18,47.373 105.18,50.779 107.131,50.779 
		107.131,52.148 105.18,52.148 105.18,57.439 103.707,57.439 	"/>
	<path fill="#00577D" d="M108.642,49.855h1.335v2.055h0.035c0.53-1.816,0.77-2.176,1.403-2.176c0.257,0,0.462,0.068,0.685,0.223
		l-0.103,1.371c-0.205-0.139-0.376-0.189-0.582-0.189c-1.026,0-1.438,2.414-1.438,3.287v3.014h-1.335"/>
	<path fill="#00577D" d="M116.62,56.977c-0.497,0.463-0.993,0.668-1.557,0.668c-1.509,0-2.433-1.354-2.433-4.006
		c0-2.5,0.771-3.988,2.105-3.988c0.822,0,1.268,0.529,1.593,1.129c0.205,0.377,0.462,1.336,0.444,3.168h-2.807
		c0,1.592,0.462,2.465,1.352,2.465c0.497,0,0.925-0.258,1.302-0.754 M115.438,52.953c0-1.455-0.239-2.139-0.771-2.139
		c-0.496,0-0.719,0.701-0.719,2.139H115.438z"/>
	<path fill="#00577D" d="M118.931,45.85c0.428,0,0.771,0.342,0.771,0.77s-0.343,0.77-0.771,0.77c-0.429,0-0.771-0.342-0.771-0.77
		S118.502,45.85,118.931,45.85 M118.263,49.855h1.335v7.584h-1.335V49.855z"/>
	<path fill="#00577D" d="M125.008,56.977c-0.496,0.463-0.992,0.668-1.558,0.668c-1.507,0-2.431-1.354-2.431-4.006
		c0-2.5,0.77-3.988,2.105-3.988c0.822,0,1.267,0.529,1.592,1.129c0.205,0.377,0.463,1.336,0.445,3.168h-2.808
		c0,1.592,0.462,2.465,1.353,2.465c0.496,0,0.924-0.258,1.301-0.754 M123.826,52.953c0-1.455-0.238-2.139-0.77-2.139
		c-0.496,0-0.719,0.701-0.719,2.139H123.826z"/>
	<path fill="#00577D" d="M130.932,59.494c1.369,0.119,1.643,0.016,1.643-1.422v-12.07h1.473v11.83c0,1.986-0.701,3.373-2.961,2.996"
		/>
	<path fill="#00577D" d="M138.002,49.65c1.473,0,2.379,1.523,2.379,4.006c0,2.465-0.906,3.988-2.379,3.988s-2.38-1.523-2.38-3.988
		C135.622,51.174,136.529,49.65,138.002,49.65 M138.02,56.377c0.65,0,0.992-0.975,0.992-2.721c0-1.799-0.342-2.74-1.027-2.74
		c-0.65,0-0.992,0.977-0.992,2.74C136.992,55.436,137.334,56.377,138.02,56.377z"/>
	<path fill="#00577D" d="M146.117,57.439h-1.336v-0.822h-0.035c-0.41,0.701-0.77,0.941-1.352,0.941
		c-0.924,0-1.712-0.701-1.712-2.174v-5.529h1.335v5.426c0,0.789,0.274,1.08,0.719,1.08c0.412,0,0.805-0.309,1.045-0.891v-5.615
		h1.336"/>
	<path fill="#00577D" d="M147.879,49.855h1.336v2.055h0.035c0.529-1.816,0.77-2.176,1.402-2.176c0.258,0,0.463,0.068,0.686,0.223
		l-0.104,1.371c-0.205-0.139-0.375-0.189-0.582-0.189c-1.027,0-1.438,2.414-1.438,3.287v3.014h-1.336"/>
	<path fill="#00577D" d="M152.381,49.855h1.334v0.82h0.035c0.41-0.666,0.805-0.941,1.404-0.941c0.924,0,1.659,0.736,1.659,2.244
		v5.461h-1.335v-5.428c0-0.65-0.17-1.096-0.719-1.096c-0.41,0-0.736,0.309-1.045,0.908v5.615h-1.334"/>
	<path fill="#00577D" d="M163.115,57.045c-0.463,0.412-0.754,0.564-1.045,0.564c-0.479,0-0.822-0.324-0.977-0.957
		c-0.496,0.666-0.957,0.992-1.455,0.992c-0.805,0-1.488-0.891-1.488-1.918c0-1.25,0.805-1.865,2.893-3.098V51.91
		c0-0.668-0.256-0.994-0.787-0.994c-0.564,0-1.131,0.359-1.918,1.25v-1.541c0.787-0.736,1.301-0.975,2.021-0.975
		c0.957,0,2.02,0.633,2.02,2.037v4.279c0,0.342,0.068,0.445,0.205,0.445c0.086,0,0.273-0.137,0.531-0.377 M161.043,53.553
		c-1.096,0.668-1.574,1.283-1.574,1.969c0,0.514,0.273,0.855,0.65,0.855c0.342,0,0.684-0.307,0.924-0.873V53.553z"/>
	<rect x="164.055" y="46.002" fill="#00577D" width="1.336" height="11.438"/>
	<path fill="#00577D" d="M167.686,45.85c0.428,0,0.77,0.342,0.77,0.77s-0.342,0.77-0.77,0.77s-0.771-0.342-0.771-0.77
		S167.258,45.85,167.686,45.85 M167.018,49.855h1.336v7.584h-1.336V49.855z"/>
	<path fill="#00577D" d="M169.67,55.557c0.549,0.598,0.908,0.82,1.318,0.82c0.377,0,0.668-0.273,0.668-0.65
		c0-1.146-1.9-2.584-1.9-4.297c0-1.027,0.686-1.779,1.645-1.779c0.428,0,0.838,0.152,1.266,0.479v1.268
		c-0.463-0.377-0.805-0.531-1.146-0.531c-0.326,0-0.531,0.223-0.531,0.564c0,1.096,1.986,2.449,1.986,4.264
		c0,1.129-0.771,1.951-1.814,1.951c-0.513,0-0.959-0.188-1.49-0.617"/>
	<path fill="#00577D" d="M177.203,57.354c-0.531,0.223-0.822,0.291-1.181,0.291c-0.874,0-1.403-0.463-1.403-1.695v-4.93h-0.875
		v-0.121c0.789-0.957,1.422-1.916,2.09-2.996h0.119v1.953h1.25v1.164h-1.25v4.33c0,0.736,0.104,1.027,0.531,1.027
		c0.223,0,0.41-0.068,0.719-0.205"/>
	<path fill="#00577D" d="M178.916,45.85c0.428,0,0.77,0.342,0.77,0.77s-0.342,0.77-0.77,0.77s-0.771-0.342-0.771-0.77
		S178.488,45.85,178.916,45.85 M178.248,49.855h1.336v7.584h-1.336V49.855z"/>
	<path fill="#00577D" d="M181.26,49.855h1.336v0.82h0.035c0.41-0.666,0.803-0.941,1.402-0.941c0.926,0,1.662,0.736,1.662,2.244
		v5.461h-1.336v-5.428c0-0.65-0.171-1.096-0.719-1.096c-0.412,0-0.736,0.309-1.045,0.908v5.615h-1.336"/>
	<rect x="196.035" y="46.002" fill="#17A1B1" width="1.336" height="16.059"/>
	<polyline fill="#00577D" points="212.522,46.002 213.789,46.002 213.789,57.439 212.35,57.439 212.436,49.17 212.402,49.137 
		210.963,52.902 210.688,52.902 209.252,49.137 209.217,49.17 209.303,57.439 207.865,57.439 207.865,46.002 209.131,46.002 
		210.826,50.197 	"/>
	<path fill="#00577D" d="M219.318,56.977c-0.498,0.463-0.994,0.668-1.559,0.668c-1.506,0-2.432-1.354-2.432-4.006
		c0-2.5,0.771-3.988,2.105-3.988c0.822,0,1.268,0.529,1.594,1.129c0.205,0.377,0.461,1.336,0.445,3.168h-2.809
		c0,1.592,0.463,2.465,1.352,2.465c0.498,0,0.926-0.258,1.303-0.754 M218.137,52.953c0-1.455-0.239-2.139-0.771-2.139
		c-0.496,0-0.718,0.701-0.718,2.139H218.137z"/>
	<path fill="#00577D" d="M224.043,57.439v-0.582h-0.035c-0.324,0.479-0.735,0.701-1.215,0.701c-1.096,0-2.141-1.336-2.141-3.887
		c0-2.379,0.908-4.021,2.209-4.021c0.479,0,0.822,0.188,1.182,0.615v-4.264h1.336v11.438 M224.043,51.67
		c-0.172-0.48-0.479-0.754-0.873-0.754c-0.719,0-1.147,1.027-1.147,2.791c0,1.643,0.394,2.516,1.079,2.516
		c0.393,0,0.701-0.223,0.941-0.719V51.67z"/>
	<path fill="#00577D" d="M227.688,45.85c0.429,0,0.771,0.342,0.771,0.77s-0.342,0.77-0.771,0.77c-0.427,0-0.771-0.342-0.771-0.77
		S227.262,45.85,227.688,45.85 M227.022,49.855h1.335v7.584h-1.335V49.855z"/>
	<path fill="#00577D" d="M233.766,56.977c-0.496,0.463-0.992,0.668-1.559,0.668c-1.506,0-2.43-1.354-2.43-4.006
		c0-2.5,0.77-3.988,2.105-3.988c0.822,0,1.268,0.529,1.592,1.129c0.205,0.377,0.464,1.336,0.445,3.168h-2.809
		c0,1.592,0.463,2.465,1.354,2.465c0.496,0,0.924-0.258,1.301-0.754 M232.584,52.953c0-1.455-0.238-2.139-0.771-2.139
		c-0.495,0-0.718,0.701-0.718,2.139H232.584z"/>
	<path fill="#00577D" d="M235.393,49.855h1.334v0.82h0.035c0.41-0.666,0.805-0.941,1.404-0.941c0.924,0,1.66,0.736,1.66,2.244v5.461
		h-1.336v-5.428c0-0.65-0.17-1.096-0.718-1.096c-0.411,0-0.737,0.309-1.046,0.908v5.615h-1.334"/>
	<path fill="#00577D" d="M244.551,57.439v-0.582h-0.033c-0.326,0.479-0.736,0.701-1.217,0.701c-1.096,0-2.139-1.336-2.139-3.887
		c0-2.379,0.906-4.021,2.209-4.021c0.479,0,0.82,0.188,1.18,0.615v-4.264h1.336v11.438 M244.551,51.67
		c-0.17-0.48-0.479-0.754-0.873-0.754c-0.719,0-1.146,1.027-1.146,2.791c0,1.643,0.395,2.516,1.078,2.516
		c0.395,0,0.704-0.223,0.941-0.719V51.67z"/>
	<path fill="#00577D" d="M248.197,45.85c0.43,0,0.771,0.342,0.771,0.77s-0.342,0.77-0.771,0.77c-0.428,0-0.77-0.342-0.77-0.77
		S247.77,45.85,248.197,45.85 M247.531,49.855h1.334v7.584h-1.334V49.855z"/>
	<path fill="#00577D" d="M253.641,57.439v-0.582h-0.033c-0.326,0.479-0.736,0.701-1.217,0.701c-1.096,0-2.139-1.336-2.139-3.887
		c0-2.379,0.906-4.021,2.209-4.021c0.478,0,0.82,0.188,1.18,0.615v-4.264h1.336v11.438 M253.641,51.67
		c-0.17-0.48-0.479-0.754-0.873-0.754c-0.719,0-1.146,1.027-1.146,2.791c0,1.643,0.395,2.516,1.078,2.516
		c0.395,0,0.703-0.223,0.941-0.719V51.67z"/>
	<path fill="#00577D" d="M261.277,57.045c-0.464,0.412-0.755,0.564-1.045,0.564c-0.479,0-0.822-0.324-0.977-0.957
		c-0.496,0.666-0.957,0.992-1.455,0.992c-0.805,0-1.487-0.891-1.487-1.918c0-1.25,0.804-1.865,2.892-3.098V51.91
		c0-0.668-0.256-0.994-0.787-0.994c-0.563,0-1.131,0.359-1.918,1.25v-1.541c0.787-0.736,1.301-0.975,2.022-0.975
		c0.957,0,2.019,0.633,2.019,2.037v4.279c0,0.342,0.068,0.445,0.205,0.445c0.086,0,0.273-0.137,0.531-0.377 M259.205,53.553
		c-1.096,0.668-1.574,1.283-1.574,1.969c0,0.514,0.273,0.855,0.65,0.855c0.342,0,0.684-0.307,0.924-0.873V53.553z"/>
	<path fill="#00577D" d="M262.287,46.002h1.336v11.438h-1.336 M263.76,53.535l1.9-3.68h1.403l-2.021,3.594l2.277,3.99h-1.49
		L263.76,53.535z"/>
	<path fill="#00577D" d="M271.086,57.354c-0.531,0.223-0.822,0.291-1.182,0.291c-0.873,0-1.402-0.463-1.402-1.695v-4.93h-0.875
		v-0.121c0.789-0.957,1.422-1.916,2.09-2.996h0.119v1.953h1.25v1.164h-1.25v4.33c0,0.736,0.103,1.027,0.531,1.027
		c0.223,0,0.41-0.068,0.719-0.205"/>
	<path fill="#00577D" d="M272.799,45.85c0.428,0,0.77,0.342,0.77,0.77s-0.342,0.77-0.77,0.77s-0.771-0.342-0.771-0.77
		S272.371,45.85,272.799,45.85 M272.131,49.855h1.336v7.584h-1.336V49.855z"/>
	<path fill="#00577D" d="M275.125,46.002h1.336v11.438h-1.336 M276.598,53.535l1.9-3.68h1.404l-2.02,3.594l2.277,3.99h-1.49
		L276.598,53.535z"/>
	<rect x="69.168" y="21.287" fill="#00577D" width="211.211" height="15.608"/>
	<path fill="#17A1B1" d="M3.794,32.002c1.216,0.992,1.923,1.347,2.694,1.347c0.692,0,1.179-0.448,1.179-1.065
		c0-1.872-3.989-3.274-3.989-6.383c0-1.834,1.591-3.258,3.671-3.258c0.912,0,1.795,0.242,2.787,0.788v2.395
		c-1.27-0.712-1.836-0.917-2.469-0.917c-0.695,0-1.179,0.354-1.179,0.878c0,1.52,4.135,3.371,4.135,6.402
		c0,2.042-1.589,3.577-3.706,3.577c-0.992,0-1.929-0.301-3.123-1.011"/>
	<polyline fill="#17A1B1" points="19.48,22.814 22.571,22.814 19.37,29.755 19.37,35.596 16.393,35.596 16.393,29.755 
		12.858,22.814 15.964,22.814 	"/>
	<polyline fill="#17A1B1" points="25.44,22.814 28.341,22.814 28.341,33.293 33.024,33.293 33.024,35.596 25.44,35.596 	"/>
	<polyline fill="#17A1B1" points="33.577,22.814 36.516,22.814 38.48,29.4 38.518,29.4 40.371,22.814 43.311,22.814 39.213,35.766 
		37.863,35.766 	"/>
	<rect x="46.219" y="22.814" fill="#17A1B1" width="2.9" height="12.782"/>
	<polyline fill="#17A1B1" points="55.273,22.739 58.285,22.739 61.637,35.596 58.828,35.596 58.232,32.937 55.35,32.937 
		54.729,35.596 51.92,35.596 	"/>
	<polyline fill="#FFFFFF" points="72.033,22.814 78.756,22.814 78.756,25.02 74.936,25.02 74.936,28.036 78.625,28.036 
		78.625,30.244 74.936,30.244 74.936,35.596 72.033,35.596 	"/>
	<polyline fill="#FFFFFF" points="81.92,22.814 89.371,22.814 89.371,25.02 84.818,25.02 84.818,27.998 89.051,27.998 
		89.051,30.206 84.818,30.206 84.818,33.387 89.537,33.387 89.537,35.596 81.92,35.596 	"/>
	<rect x="93.033" y="22.814" fill="#FFFFFF" width="2.902" height="12.782"/>
	<polyline fill="#FFFFFF" points="99.879,22.814 102.779,22.814 102.779,33.293 107.459,33.293 107.459,35.596 99.879,35.596 	"/>
</g>
</svg>
